HIERARCHY
ROOT Hips
{
  OFFSET 5.84602e-005 68.8428 3.50346
  CHANNELS 6 Xposition Yposition Zposition Zrotation Xrotation Yrotation
  JOINT Spine
  {
    OFFSET 0 8.597 -4.6522
    CHANNELS 3 Zrotation Xrotation Yrotation
    JOINT Spine1
    {
      OFFSET 0 7.8454 0.4098
      CHANNELS 3 Zrotation Xrotation Yrotation
      JOINT Spine2
      {
        OFFSET 0 9.7078 -2.1609
        CHANNELS 3 Zrotation Xrotation Yrotation
        JOINT Neck
        {
          OFFSET 0 21.8761 -0.4549
          CHANNELS 3 Zrotation Xrotation Yrotation
          JOINT Head
          {
            OFFSET 0 12.3537 3.3602
            CHANNELS 3 Zrotation Xrotation Yrotation
            End Site
            {
              OFFSET 0.0001 18.9506 0.5657
            }
          }
        }
        JOINT LeftShoulder
        {
          OFFSET 2.2086 21.1115 7.2329
          CHANNELS 3 Zrotation Xrotation Yrotation
          JOINT LeftArm
          {
            OFFSET 13.1193 3.0282 -4.8998
            CHANNELS 3 Zrotation Xrotation Yrotation
            JOINT LeftForeArm
            {
              OFFSET 27.4081 -0.0973053 -0.2375
              CHANNELS 3 Zrotation Xrotation Yrotation
              JOINT LeftHand
              {
                OFFSET 22.8641 0.0662994 -0.1369
                CHANNELS 3 Zrotation Xrotation Yrotation
                JOINT LeftHandIndex1
                {
                  OFFSET 8.8614 0.775009 2.4612
                  CHANNELS 3 Zrotation Xrotation Yrotation
                  JOINT LeftHandIndex2
                  {
                    OFFSET 3.3146 -0.808304 0.5841
                    CHANNELS 3 Zrotation Xrotation Yrotation
                    JOINT LeftHandIndex3
                    {
                      OFFSET 2.2628 -0.552002 0.3989
                      CHANNELS 3 Zrotation Xrotation Yrotation
                      End Site
                      {
                        OFFSET 1.6102 -0.4807 0.2612
                      }
                    }
                  }
                }
                JOINT LeftHandMiddle1
                {
                  OFFSET 8.9937 0.895004 0.2143
                  CHANNELS 3 Zrotation Xrotation Yrotation
                  JOINT LeftHandMiddle2
                  {
                    OFFSET 4.0984 0.0113983 -0.0242
                    CHANNELS 3 Zrotation Xrotation Yrotation
                    JOINT LeftHandMiddle3
                    {
                      OFFSET 2.2716 0.00689697 -0.0138001
                      CHANNELS 3 Zrotation Xrotation Yrotation
                      End Site
                      {
                        OFFSET 2.0404 -0.1441 0.0027
                      }
                    }
                  }
                }
                JOINT LeftHandRing1
                {
                  OFFSET 8.5234 0.597198 -2.0164
                  CHANNELS 3 Zrotation Xrotation Yrotation
                  JOINT LeftHandRing2
                  {
                    OFFSET 3.7188 -0.188293 -0.2328
                    CHANNELS 3 Zrotation Xrotation Yrotation
                    JOINT LeftHandRing3
                    {
                      OFFSET 2.1191 -0.106598 -0.1332
                      CHANNELS 3 Zrotation Xrotation Yrotation
                      End Site
                      {
                        OFFSET 1.8737 -0.2304 -0.0886
                      }
                    }
                  }
                }
                JOINT LeftHandPinky1
                {
                  OFFSET 7.9094 -0.601089 -3.4825
                  CHANNELS 3 Zrotation Xrotation Yrotation
                  JOINT LeftHandPinky2
                  {
                    OFFSET 2.2874 -0.477005 -0.6314
                    CHANNELS 3 Zrotation Xrotation Yrotation
                    JOINT LeftHandPinky3
                    {
                      OFFSET 1.6774 -0.349396 -0.4633
                      CHANNELS 3 Zrotation Xrotation Yrotation
                      End Site
                      {
                        OFFSET 1.4888 -0.4091 -0.3416
                      }
                    }
                  }
                }
                JOINT LeftHandThumb1
                {
                  OFFSET 1.833 -1.3875 1.3896
                  CHANNELS 3 Zrotation Xrotation Yrotation
                  JOINT LeftHandThumb2
                  {
                    OFFSET 3.4129 -1.121 2.5732
                    CHANNELS 3 Zrotation Xrotation Yrotation
                    JOINT LeftHandThumb3
                    {
                      OFFSET 2.2474 -0.804199 1.6192
                      CHANNELS 3 Zrotation Xrotation Yrotation
                      End Site
                      {
                        OFFSET 1.6527 -0.5689 1.1317
                      }
                    }
                  }
                }
              }
            }
          }
        }
        JOINT RightShoulder
        {
          OFFSET -2.2086 21.1115 7.2329
          CHANNELS 3 Zrotation Xrotation Yrotation
          JOINT RightArm
          {
            OFFSET -13.1216 3.0287 -4.9007
            CHANNELS 3 Zrotation Xrotation Yrotation
            JOINT RightForeArm
            {
              OFFSET -27.4081 -0.0973053 -0.2375
              CHANNELS 3 Zrotation Xrotation Yrotation
              JOINT RightHand
              {
                OFFSET -22.8641 0.0664063 -0.1369
                CHANNELS 3 Zrotation Xrotation Yrotation
                JOINT RightHandIndex1
                {
                  OFFSET -8.8614 0.774994 2.4612
                  CHANNELS 3 Zrotation Xrotation Yrotation
                  JOINT RightHandIndex2
                  {
                    OFFSET -3.3146 -0.808304 0.5841
                    CHANNELS 3 Zrotation Xrotation Yrotation
                    JOINT RightHandIndex3
                    {
                      OFFSET -2.2628 -0.552002 0.3989
                      CHANNELS 3 Zrotation Xrotation Yrotation
                      End Site
                      {
                        OFFSET -1.6102 -0.4807 0.2612
                      }
                    }
                  }
                }
                JOINT RightHandMiddle1
                {
                  OFFSET -8.9937 0.894989 0.2143
                  CHANNELS 3 Zrotation Xrotation Yrotation
                  JOINT RightHandMiddle2
                  {
                    OFFSET -4.0984 0.0113983 -0.0242
                    CHANNELS 3 Zrotation Xrotation Yrotation
                    JOINT RightHandMiddle3
                    {
                      OFFSET -2.2716 0.00691223 -0.0138001
                      CHANNELS 3 Zrotation Xrotation Yrotation
                      End Site
                      {
                        OFFSET -2.0404 -0.1441 0.0027
                      }
                    }
                  }
                }
                JOINT RightHandRing1
                {
                  OFFSET -8.5234 0.597198 -2.0164
                  CHANNELS 3 Zrotation Xrotation Yrotation
                  JOINT RightHandRing2
                  {
                    OFFSET -3.7188 -0.188309 -0.2328
                    CHANNELS 3 Zrotation Xrotation Yrotation
                    JOINT RightHandRing3
                    {
                      OFFSET -2.1191 -0.106598 -0.1332
                      CHANNELS 3 Zrotation Xrotation Yrotation
                      End Site
                      {
                        OFFSET -1.8737 -0.2304 -0.0886
                      }
                    }
                  }
                }
                JOINT RightHandPinky1
                {
                  OFFSET -7.9094 -0.601105 -3.4825
                  CHANNELS 3 Zrotation Xrotation Yrotation
                  JOINT RightHandPinky2
                  {
                    OFFSET -2.2874 -0.477005 -0.6314
                    CHANNELS 3 Zrotation Xrotation Yrotation
                    JOINT RightHandPinky3
                    {
                      OFFSET -1.6774 -0.349396 -0.4633
                      CHANNELS 3 Zrotation Xrotation Yrotation
                      End Site
                      {
                        OFFSET -1.4888 -0.4091 -0.3416
                      }
                    }
                  }
                }
                JOINT RightHandThumb1
                {
                  OFFSET -1.833 -1.38751 1.3896
                  CHANNELS 3 Zrotation Xrotation Yrotation
                  JOINT RightHandThumb2
                  {
                    OFFSET -3.41299 -1.12099 2.5732
                    CHANNELS 3 Zrotation Xrotation Yrotation
                    JOINT RightHandThumb3
                    {
                      OFFSET -2.24741 -0.804108 1.6192
                      CHANNELS 3 Zrotation Xrotation Yrotation
                      End Site
                      {
                        OFFSET -1.6527 -0.5689 1.1317
                      }
                    }
                  }
                }
              }
            }
          }
        }
      }
    }
  }
  JOINT RightUpLeg
  {
    OFFSET -9.1966 3.8861 -0.7581
    CHANNELS 3 Zrotation Xrotation Yrotation
    JOINT RightLeg
    {
      OFFSET -0.7359 -41.0265 0
      CHANNELS 3 Zrotation Xrotation Yrotation
      JOINT RightFoot
      {
        OFFSET 0 -40.2855 0
        CHANNELS 3 Zrotation Xrotation Yrotation
        JOINT RightToeBase
        {
          OFFSET 0 -5.6122 11.7359
          CHANNELS 3 Zrotation Xrotation Yrotation
          End Site
          {
            OFFSET 0 0 7.8731
          }
        }
      }
    }
  }
  JOINT LeftUpLeg
  {
    OFFSET 9.1965 3.8864 -0.7581
    CHANNELS 3 Zrotation Xrotation Yrotation
    JOINT LeftLeg
    {
      OFFSET 0.7359 -41.0268 0
      CHANNELS 3 Zrotation Xrotation Yrotation
      JOINT LeftFoot
      {
        OFFSET 0 -40.2855 0
        CHANNELS 3 Zrotation Xrotation Yrotation
        JOINT LeftToeBase
        {
          OFFSET 0 -5.6122 11.7359
          CHANNELS 3 Zrotation Xrotation Yrotation
          End Site
          {
            OFFSET 0 0 7.8731
          }
        }
      }
    }
  }
}
MOTION
Frames:	4
Frame Time:	0.0333333
5.84602e-005 68.8428 3.50346 0 0 -0 0 0 -0 0 0 -0 0 0 -0 0 0 -0 0 0 -0 0 0 -0 0 0 -0 0 0 -0 0 0 -0 0 0 -0 0 0 -0 0 0 -0 0 0 -0 -0.0146107 -8.87603e-005 -2.63497e-007 2.99804e-018 -2.42657e-020 -1.42182e-022 0 0 -0 -0.0187562 -0.001176 5.858e-005 5.06224e-018 3.88251e-019 1.21329e-020 0 0 -0 -0.012269 -0.00324817 0.000675346 -1.74678e-018 3.88251e-019 -0 0 0 -0 0 0 -0 0 0 -0 0 0 -0 0 0 -0 0 0 -0 0 0 -0 0 0 -0 0 0 -0 0 0 -0 0 0 -0 0.0149955 -9.10982e-005 2.64101e-007 -9.69331e-018 1.21329e-020 -4.7394e-023 0 0 -0 0.0189956 -0.00119102 -5.96516e-005 -5.41541e-019 0 2.42657e-020 0 0 -0 0.0122698 -0.00324857 -0.000673756 -2.00796e-019 0 -1.94126e-019 0 0 -0 0 0 -0 0 0 -0 3.39842 1.33031 -0.0637918 -5.65207e-008 0.834868 -0.000436188 -3.39935 -2.16518 -0.0642563 -8.89002e-024 -1.18485e-023 -1.48106e-024 -3.39844 1.35642 0.0640283 -3.18788e-007 0.782166 -0.000588827 3.39931 -2.13858 0.0634662 1.1399e-023 0 -0 
-26.5498 2.70203 -15.9227 -97.2022 3.49971 -33.7834 7.60184 17.6619 -2.63069 17.4001 34.739 -8.46177 17.4001 34.739 -8.46177 -21.0004 -0.0722442 0.0346653 -0.942481 -0.0262373 -0.000214708 -8.00257 -0.0420815 0.275754 -19.0024 -8.98057e-006 -34.0023 -28.9988 -0.474502 -89.3109 -7.00032 1.77885e-006 1.15411e-005 -3.12623e-007 -9.64011e-008 2.73874e-007 -3.12623e-007 -9.64011e-008 2.73874e-007 -6.25247e-007 -1.92802e-007 5.47747e-007 -3.12623e-007 -9.64011e-008 2.73874e-007 -0.0146309 -9.17333e-005 -2.83407e-006 -6.2525e-007 -1.92872e-007 5.47723e-007 -3.12623e-007 -9.64011e-008 2.73874e-007 -0.0187312 -0.00116689 6.29891e-005 -6.25246e-007 -1.92892e-007 5.47722e-007 -3.12623e-007 -9.64011e-008 2.73874e-007 -0.0122831 -0.00325475 0.000677797 -6.25235e-007 -1.92858e-007 5.47744e-007 -3.12623e-007 -9.64011e-008 2.73874e-007 -3.12623e-007 -9.64011e-008 2.73874e-007 -6.25247e-007 -1.92802e-007 5.47747e-007 7.99915 -0.194723 1.75715e-005 45.0394 -1.93505 81.2048 15.0062 5.65856 20.1942 19.9982 -2.78459e-006 -5.94372e-006 3.18055e-015 1.59028e-015 -0 3.18055e-015 7.95139e-016 -3.18055e-015 1.59028e-015 5.56597e-015 6.36111e-015 3.18055e-015 1.59028e-015 -0 0.0149381 -9.01098e-005 -1.8035e-006 7.95139e-016 2.38542e-015 -0 3.18055e-015 1.59028e-015 -0 0.0189651 -0.00118704 -6.09543e-005 8.74653e-015 -7.15625e-015 6.36111e-015 3.18055e-015 1.59028e-015 -0 0.0121614 -0.00321898 -0.000671042 1.32417e-031 -2.38542e-015 3.18055e-015 3.18055e-015 1.59028e-015 -0 3.18055e-015 7.95139e-016 -3.18055e-015 1.59028e-015 5.56597e-015 6.36111e-015 12.1553 7.47679 5.64507 2.44672 17.2487 -0.955778 -4.5028 5.58636 18.3603 1.80491e-007 2.70117e-006 -2.106e-006 -10.946 27.0517 24.107 -13.4439 53.8702 11.969 5.27616 4.8645 0.49681 -3.18055e-015 1.98785e-016 1.49089e-016 
-26.5498 2.70203 -15.9227 -97.2022 3.49971 -33.7834 7.60185 17.6619 -2.63069 17.4001 34.739 -8.46176 17.4001 34.739 -8.46177 -21.0007 -0.0718913 0.0346546 -0.731322 -0.00216624 -0.130421 -8.00257 -0.0420801 0.27575 -19.0024 -7.68142e-006 -34.0023 -28.9881 -0.610537 -89.2814 -7.00032 -1.47171e-006 3.11572e-006 3.12645e-007 9.59923e-008 -2.73977e-007 -3.18055e-015 1.59028e-015 -1.39149e-015 3.12645e-007 9.59923e-008 -2.73977e-007 3.12645e-007 9.59923e-008 -2.73977e-007 -0.0146368 -9.01405e-005 2.33667e-007 3.12646e-007 9.60273e-008 -2.73965e-007 3.12645e-007 9.59923e-008 -2.73977e-007 -0.0187714 -0.00117059 6.00945e-005 8.84918e-007 7.33777e-007 7.34762e-007 3.12645e-007 9.59923e-008 -2.73977e-007 -0.0122382 -0.00324202 0.000673325 8.85515e-007 7.33631e-007 7.34759e-007 3.12645e-007 9.59923e-008 -2.73977e-007 -3.18055e-015 1.59028e-015 -1.39149e-015 3.12645e-007 9.59923e-008 -2.73977e-007 7.99916 -0.194723 3.84149e-006 45.0394 -1.93504 81.2048 15.0061 5.65858 20.1944 19.9982 -5.41678e-006 -1.92102e-006 3.73544e-006 1.35058e-006 4.72664e-007 3.09804e-006 -7.52096e-007 -5.22705e-007 3.76048e-007 1.54902e-006 -5.53653e-007 3.73544e-006 1.35058e-006 4.72664e-007 0.0149364 -9.58841e-005 -3.22842e-006 3.76082e-007 1.54895e-006 -5.53855e-007 3.73544e-006 1.35058e-006 4.72664e-007 0.0189353 -0.00118486 -5.958e-005 -1.53485e-006 1.40392e-006 -1.51779e-007 3.73544e-006 1.35058e-006 4.72664e-007 0.0122555 -0.00324253 -0.000674402 -1.53579e-006 1.40364e-006 -1.51755e-007 3.73544e-006 1.35058e-006 4.72664e-007 3.09804e-006 -7.52096e-007 -5.22705e-007 3.76048e-007 1.54902e-006 -5.53653e-007 12.1554 7.47693 5.64543 2.44671 17.2485 -0.955774 -4.50277 5.58624 18.3603 -7.0788e-007 -7.37907e-007 3.64106e-006 -10.946 27.0517 24.107 -13.4439 53.8705 11.9691 5.27618 4.86425 0.496846 1.59028e-015 -3.97569e-016 2.48481e-016 
-26.5498 2.70203 -15.9227 -97.2022 3.49971 -33.7834 7.60182 17.6619 -2.63069 17.4001 34.739 -8.46177 17.4001 34.739 -8.46177 -21.0006 -0.0716844 0.0345303 -0.52002 0.0214306 -0.260779 -8.00257 -0.0420821 0.275755 -19.0024 -3.6784e-006 -34.0023 -28.9773 -0.7466 -89.2519 -7.00032 -2.85538e-006 -1.15237e-006 -2.03432e-006 -3.45625e-007 -4.28422e-007 -1.87997e-006 -2.21648e-008 -2.7754e-006 -1.58323e-007 2.27876e-007 -2.0729e-006 -2.03432e-006 -3.45625e-007 -4.28422e-007 -0.0146129 -8.41199e-005 -8.90802e-007 4.26568e-007 8.6754e-007 -1.06222e-006 -2.03432e-006 -3.45625e-007 -4.28422e-007 -0.0187575 -0.00117346 5.64135e-005 -1.58274e-007 2.2822e-007 -2.07286e-006 -2.03432e-006 -3.45625e-007 -4.28422e-007 -0.012284 -0.00323728 0.00067438 -1.58335e-007 2.28112e-007 -2.07288e-006 -2.03432e-006 -3.45625e-007 -4.28422e-007 -1.87997e-006 -2.21648e-008 -2.7754e-006 -1.58323e-007 2.27876e-007 -2.0729e-006 7.99916 -0.194722 6.53249e-006 45.0394 -1.93505 81.2048 15.0061 5.65862 20.1946 19.9982 -4.38392e-006 4.65454e-006 1.59028e-015 3.18055e-015 -0 -3.18055e-015 -3.97569e-015 -3.18055e-015 -2.38542e-015 -3.18055e-015 -3.18055e-015 1.59028e-015 3.18055e-015 -0 0.0149379 -9.11439e-005 3.27391e-007 -5.56597e-015 -7.95139e-016 -6.36111e-015 1.59028e-015 3.18055e-015 -0 0.0190497 -0.00119385 -5.99557e-005 -4.77083e-015 -5.56597e-015 3.18055e-015 1.59028e-015 3.18055e-015 -0 0.0122771 -0.00325055 -0.000675589 2.38542e-015 -7.95139e-015 3.18055e-015 1.59028e-015 3.18055e-015 -0 -3.18055e-015 -3.97569e-015 -3.18055e-015 -2.38542e-015 -3.18055e-015 -3.18055e-015 12.1554 7.47709 5.64578 2.44671 17.2482 -0.955745 -4.50275 5.5861 18.3603 -1.75792e-007 6.54422e-007 5.11688e-007 -10.946 27.0516 24.107 -13.444 53.8708 11.9692 5.27615 4.86395 0.496846 -1.95283e-006 1.73968e-006 1.61886e-006 
